<svg width="90" height="90" viewBox="0 0 90 90" fill="none" xmlns="http://www.w3.org/2000/svg">
<path d="M90 45C90 69.8528 69.8528 90 45 90C20.1472 90 0 69.8528 0 45C0 20.1472 20.1472 0 45 0C69.8528 0 90 20.1472 90 45Z" fill="#D9D9D9"/>
<path d="M74.6701 54.446C70.7234 46.3067 64.2278 32.9107 59.676 23.5237C58.8106 21.7389 56.3833 21.4632 55.1402 23.0088C51.8619 27.0852 47.5476 32.4495 45.1809 35.3923C42.8293 32.4852 38.5854 27.2384 35.3418 23.2283C34.0966 21.6888 31.6758 21.9648 30.8119 23.7466C25.6674 34.356 18.433 49.2758 13.274 59.9155C12.4025 61.713 13.7166 63.798 15.7143 63.793C20.84 63.78 27.124 63.7642 31.6288 63.753C32.3925 63.751 33.1183 63.4266 33.6291 62.859C41.0582 54.606 49.8636 44.8245 57.1687 36.7094C58.7461 39.9628 64.1145 51.0335 65.78 54.4683L60.6219 54.4813L54.6435 47.0903L50.3649 51.8433C49.4386 52.8722 49.4364 54.4332 50.3627 55.4622C52.3055 57.6204 55.4774 61.1439 56.9625 62.7936C57.4765 63.3647 58.2046 63.6858 58.9731 63.6838C63.4825 63.6724 69.7162 63.6567 74.8232 63.6439C76.8148 63.6389 78.117 61.5544 77.248 59.7623L74.6701 54.446ZM29.7659 54.5592L24.7224 54.5719L33.418 36.6389C34.8318 38.2096 37.6961 41.3917 39.1009 42.9521L29.7659 54.5592ZM74.6701 54.446C70.7234 46.3067 64.2278 32.9107 59.676 23.5237C58.8106 21.7389 56.3833 21.4632 55.1402 23.0088C51.8619 27.0852 47.5476 32.4495 45.1809 35.3923C42.8293 32.4852 38.5854 27.2384 35.3418 23.2283C34.0966 21.6888 31.6758 21.9648 30.8119 23.7466C25.6674 34.356 18.433 49.2758 13.274 59.9155C12.4025 61.713 13.7166 63.798 15.7143 63.793C20.84 63.78 27.124 63.7642 31.6288 63.753C32.3925 63.751 33.1183 63.4266 33.6291 62.859C41.0582 54.606 49.8636 44.8245 57.1687 36.7094C58.7461 39.9628 64.1145 51.0335 65.78 54.4683L60.6219 54.4813L54.6435 47.0903L50.3649 51.8433C49.4386 52.8722 49.4364 54.4332 50.3627 55.4622C52.3055 57.6204 55.4774 61.1439 56.9625 62.7936C57.4765 63.3647 58.2046 63.6858 58.9731 63.6838C63.4825 63.6724 69.7162 63.6567 74.8232 63.6439C76.8148 63.6389 78.117 61.5544 77.248 59.7623L74.6701 54.446ZM29.7659 54.5592L24.7224 54.5719L33.418 36.6389C34.8318 38.2096 37.6961 41.3917 39.1009 42.9521L29.7659 54.5592Z" fill="black"/>
</svg>
