<?xml version="1.0" encoding="utf-8" ?>
<svg xmlns="http://www.w3.org/2000/svg" xmlns:xlink="http://www.w3.org/1999/xlink" width="1954" height="786">
	<path fill="#FEFEFE" d="M0 0L1952.33 0C1953.18 1.3433 1953.7 2.61022 1953.83 4.21387C1954.92 18.1509 1954 32.9062 1954.01 46.9263L1954.01 132.215L1954.02 626.387L1954.01 740.234C1954.01 749.727 1955.57 775.417 1953.49 783.39C1953.24 784.351 1952.88 785.178 1952.33 786L0 786L0 0Z"/>
	<path d="M33.0433 23.9454L542.962 23.9274L542.976 765.994L33.0474 766L33.0433 23.9454Z"/>
	<path fill="#FEFEFE" d="M275.3 167.321C275.618 167.268 275.735 167.242 276.094 167.218C342.41 162.705 398.737 184.83 448.185 228.056C425.437 250.236 403.229 273.065 380.784 295.558C364.417 279.585 343.862 268.571 321.496 263.787C286.483 255.927 249.782 262.317 219.487 281.546C187.61 301.979 165.227 334.305 157.322 371.329C149.558 407.963 156.69 446.181 177.144 477.553C196.702 507.675 227.977 530.51 263.366 537.877C298.944 545.282 339.559 539.172 370.028 518.964C395.293 502.207 410.741 477.309 416.683 447.805L291.065 447.742L291.067 357.333C317.866 356.703 344.808 357.263 371.623 357.25L511.702 357.283C513.091 365.526 514.129 373.919 514.955 382.236C521.098 444.069 504.581 510.085 464.814 558.451C427.813 603.453 373.852 628.007 316.504 633.526C253.896 640.076 191.292 621.103 142.859 580.9C95.2421 541.583 65.1238 485.023 59.0837 423.576C52.8838 361.06 72.1968 298.689 112.643 250.61C153.9 201.022 211.561 173.186 275.3 167.321Z"/>
	<path d="M595.097 367.026L687.808 366.999C720.76 367.009 745.442 370.442 769.844 395.008C786.791 412.069 796.249 434.396 796.153 458.488C796.056 482.796 786.781 504.818 769.487 521.874C742.226 548.76 710.102 550.373 674.073 550.188L638.145 550.167C638.652 590.529 639.296 631.499 637.935 671.825C623.734 672.456 609.415 672.096 595.199 672.087C593.91 570.455 595.072 468.674 595.097 367.026Z"/>
	<path fill="#FEFEFE" d="M638.315 407.123L674.763 407.014C695.229 406.947 716.751 405.253 733.546 419.169C743.792 427.659 751.71 441.095 752.856 454.491C754.17 469.855 747.24 482.353 737.671 493.714C731.112 499.749 724.123 504.054 715.5 506.542C697.944 511.607 658.309 508.969 638.288 508.851C637.925 474.957 638.189 441.018 638.315 407.123Z"/>
	<path d="M881.097 455.473C902.053 452.613 928.13 455.631 947.184 464.763C965.861 473.533 980.238 489.427 987.092 508.885C990.503 518.693 992.185 529.466 992.913 539.796C994.428 561.294 993.179 583.609 993.121 605.185C993.07 623.888 994.174 642.991 993.244 661.626C993.092 664.67 992.871 667.696 991.518 670.476C984.588 674.448 959.511 672.135 950.444 671.936C952.292 665.813 952.108 652.042 949.829 646.214C949.393 648.903 946.095 652.07 944.201 653.967C928.417 669.783 909.631 678.968 886.953 678.856C863.324 678.74 839.827 669.911 823.904 652.24C819.368 647.205 815.976 640.756 811.274 636.134C811.126 635.989 810.974 635.846 810.825 635.702C811.214 632.975 809.269 628.47 808.631 625.712C804.656 608.517 804.3 591.91 812.058 575.592C820.343 558.165 837.638 546.343 855.401 540.088C881.729 530.817 924.696 532.701 949.841 544.686C950.304 543.822 950.704 542.927 950.919 541.965C952.718 533.902 949.85 524.32 945.482 517.589C937.629 505.49 924.341 497.373 910.349 494.477C893.004 490.887 873.951 495.288 861.132 507.694C856.732 511.952 852.867 517.601 847.68 520.855C847.471 520.986 847.259 521.111 847.048 521.239C844.141 516.241 816.081 500.608 809.713 497.688C815.236 494.463 819.148 487.626 823.465 482.909C838.804 466.151 859.84 460.447 881.097 455.473Z"/>
	<path fill="#FEFEFE" d="M895.772 568.991C904.944 568.873 913.713 569.171 922.767 570.768C930.416 572.118 945.701 575.392 950.498 582.254C952.479 591.405 948.503 601.663 943.732 609.335C934.145 624.751 919.338 634.807 901.803 638.906C896.527 639.688 891.73 640.297 886.382 639.732C873.687 638.392 857.876 631.98 852.591 619.353C850.814 615.108 850.587 610.178 847.518 606.572C847.375 606.403 847.225 606.241 847.079 606.076C851.776 601.661 852.308 592.84 856.369 587.348C864.897 575.816 882.32 570.945 895.772 568.991Z"/>
	<path d="M1649.12 455.479C1673.76 452.112 1702.54 457.152 1723.15 471.315C1746.89 487.636 1759.7 512.37 1764.74 540.252C1766.28 548.761 1770.15 568.902 1765.31 575.898C1749.86 577.782 1729.86 576.151 1714.01 576.147L1602.87 576.096C1607.84 583.704 1605.93 598.367 1616.61 612.978C1626.77 626.881 1641.5 635.752 1658.5 638.368C1681.08 641.843 1702.46 633.483 1716.86 615.791C1720.12 611.788 1722.39 605.41 1726.47 602.43L1728.06 602.919C1735.08 604.99 1757.73 615.503 1762.59 619.956C1762.88 623.026 1760.78 626.423 1759.21 629.067C1745.23 652.568 1720.57 668.915 1694.34 675.448C1667.06 682.242 1636.39 678.814 1612.16 664.126C1587.25 649.023 1570.72 624.902 1563.92 596.793C1556.63 566.71 1560.63 530.257 1576.89 503.75C1594.68 474.753 1617.08 463.076 1649.12 455.479Z"/>
	<path fill="#FEFEFE" d="M1651.03 495.542C1661.05 494.413 1672.42 494.307 1682.27 496.447C1694.71 499.148 1706.26 506.448 1713.18 517.243C1716.55 522.511 1722.42 533.469 1721.01 539.904L1677.07 539.927L1605.86 539.904C1610.26 534.925 1612.77 526.519 1616.26 520.609C1624.56 506.561 1635.29 499.593 1651.03 495.542Z"/>
	<path d="M1437.38 455.478C1455.06 452.936 1476.36 455.786 1492.28 463.831C1508.56 472.063 1520.11 487.231 1525.71 504.416C1528.82 513.987 1530.35 524.409 1530.98 534.433C1532.35 556.115 1531.12 578.457 1531.13 600.212C1531.13 622.132 1532.36 644.417 1531.19 666.277C1531.07 668.407 1530.72 670.007 1529.76 671.919C1516.31 673.502 1501.19 672.199 1487.59 672.213C1488.94 667.023 1488.53 548.312 1487.81 538.177C1487.34 531.629 1486.11 525.131 1483.61 519.041C1479.72 509.589 1472.84 502.304 1463.34 498.382C1448.66 492.315 1429.54 493.779 1415.14 499.817C1414.21 501.59 1411.32 503.16 1409.73 504.529C1402.77 510.501 1396.29 517.336 1392.78 525.916C1389.67 533.658 1387.61 541.782 1386.66 550.071C1385.35 561.384 1386.05 573.367 1386.08 584.754L1386.35 646.56C1386.37 653.829 1387.78 665.525 1384.83 672.121L1342.76 672.048C1345.7 666.608 1344.07 520.149 1344.08 503.228C1344.08 490.1 1342.84 475.511 1344.58 462.547C1344.83 462.33 1345.19 461.992 1345.5 461.828C1350.49 459.259 1378.13 460.361 1383.67 462.057C1384.13 462.758 1384.49 463.462 1384.75 464.255C1386.27 468.766 1386.13 482.5 1383.93 486.801C1383.84 486.982 1383.74 487.159 1383.64 487.338C1388.15 484.988 1391.49 479.726 1395.21 476.228C1407.24 464.925 1421.88 459.925 1437.38 455.478Z"/>
	<path d="M1110.09 171.221C1131.12 168.739 1134.19 179.089 1146.58 181.072L1147.33 176.491C1152.34 172.601 1169.26 174.745 1175.68 174.866C1179.12 180.24 1177.31 291.605 1175.8 302.418C1173.58 318.435 1167.21 333.65 1153.92 343.565C1140.86 353.318 1122.81 356.696 1106.86 354.305C1089.2 351.656 1074.97 341.892 1064.43 327.642C1062.04 324.405 1058.72 319.57 1059.33 315.438C1060.76 313.656 1062.93 312.84 1064.94 311.885C1071.68 310.605 1078 306.839 1083.95 303.623C1091.43 309.02 1092.18 318.946 1102.43 323.602C1110.3 327.178 1120.45 327.524 1128.52 324.448C1135.83 321.663 1141.24 315.997 1144.32 308.874C1147.12 302.415 1147.93 293.76 1145.29 287.213C1145.07 287.909 1144.71 288.502 1144.29 289.1C1140.65 294.277 1131.87 297.314 1125.85 298.407C1110.56 301.152 1094.81 297.753 1082.01 288.949C1067.85 279.278 1058.15 264.351 1055.05 247.487C1052 230.798 1055.28 212.419 1065.08 198.436C1075.88 183.018 1091.84 174.461 1110.09 171.221Z"/>
	<path fill="#FEFEFE" d="M1110.35 198.883C1113 198.477 1115.62 198.236 1118.31 198.269C1126.37 198.37 1134.41 202.351 1139.91 208.17C1147.08 215.745 1150.87 226.978 1150.46 237.34C1150.08 247.108 1145.67 257.608 1138.37 264.216C1133.72 268.425 1126.68 272.078 1120.27 271.676C1120.22 271.719 1120.17 271.774 1120.11 271.804C1117.13 273.3 1112.33 272.305 1109.13 271.525C1101.17 269.592 1093.07 261.78 1089 254.882C1083.77 246.003 1082.46 234.745 1085.13 224.823C1089.1 210.07 1097.92 206.123 1109.97 199.108L1110.35 198.883Z"/>
	<path d="M1216.12 398.245C1229.29 396.915 1243.21 397.796 1256.46 397.845C1257.01 398.812 1257.48 399.802 1257.76 400.885C1259.36 407.018 1259.16 456.578 1256.58 460.801C1271.05 460.721 1286.02 459.886 1300.44 460.824C1302.94 460.986 1305.87 461.009 1307.64 463.003C1310.46 469.495 1310.03 494.2 1307.66 500.827C1290.74 501.226 1273.75 500.928 1256.82 500.92C1263.14 512.703 1252.71 598.294 1261.02 619.751C1263.35 625.786 1267.76 631.665 1273.87 634.246C1281.68 637.549 1291.94 634.414 1299.39 631.253C1300.15 631.843 1300.87 632.49 1301.42 633.283C1304.35 637.461 1311.48 656.762 1310.6 661.522C1312.26 663.036 1312.73 664.959 1313.38 667.028C1312.81 668.712 1312.71 669.33 1310.94 670.091C1294.94 676.96 1266.09 676.715 1250.15 670.185C1211.64 654.406 1214.67 613.729 1214.74 579.139L1214.78 522.811C1214.79 517.612 1216.64 505.782 1214.59 501.293C1214.54 501.187 1214.48 501.085 1214.43 500.98L1177.5 500.912C1183.23 490.765 1174.83 470.609 1180.88 462.891C1187.71 458.037 1206.23 460.247 1214.47 461.271C1215.58 447.603 1212.1 407.654 1216.12 398.245Z"/>
	<path d="M675.211 103.428C677.179 102.901 679.718 102.988 681.775 102.929C709.737 102.122 733.095 112.119 753.25 131.217C746.676 138.592 739.246 145.455 732.274 152.472C723.623 144.61 713.294 138.369 701.988 135.257C685.044 130.459 666.878 132.731 651.639 141.555C636.942 150.029 624.552 164.645 620.18 181.205C615.548 198.745 617.359 220.147 626.642 235.898C635.905 251.59 651.055 262.932 668.724 267.401C685.818 271.674 705.127 268.965 720.202 259.79C734.896 250.847 741.813 237.439 745.777 221.18L683.138 221.175L683.078 192.609L683.3 191.746C685.81 189.87 766.3 190.83 775.207 190.827C775.634 193.552 776.012 196.284 776.341 199.022C779.019 221.923 773.249 247.164 758.738 265.311C743.749 284.076 721.862 296.05 697.974 298.555C670.015 301.592 642.847 294.25 620.874 276.483C600.705 260.07 587.869 236.333 585.177 210.473C582.543 184.546 591.033 159.086 607.473 139.05C624.469 118.708 648.816 105.905 675.211 103.428Z"/>
	<path d="M842.522 170.923C877.799 168.791 908.213 195.463 910.696 230.71C913.179 265.957 886.804 296.627 851.576 299.46C815.849 302.332 784.641 275.509 782.123 239.763C779.605 204.017 806.744 173.085 842.522 170.923Z"/>
	<path fill="#FEFEFE" d="M839.923 198.874C842.769 198.478 845.543 198.22 848.419 198.337C857.148 198.691 865.512 203.188 871.321 209.614C877.968 216.966 881.337 227.19 880.774 237.051C880.201 247.108 875.713 257.841 867.979 264.491C863.147 268.647 856.568 271.9 850.13 271.495C849.452 272.016 848.554 272.229 847.753 272.52C844.869 273.566 834.821 270.08 831.871 268.682C823.856 264.905 817.693 258.069 814.765 249.707C811.232 239.713 811.691 227.316 816.312 217.751C821.307 207.413 829.427 202.529 839.923 198.874Z"/>
	<path d="M977.496 171.018C1013.16 168.369 1044.15 195.268 1046.54 230.94C1048.92 266.611 1021.79 297.399 986.096 299.523C950.769 301.625 920.363 274.84 918 239.538C915.637 204.236 942.204 173.64 977.496 171.018Z"/>
	<path fill="#FEFEFE" d="M976.332 198.881C976.941 198.784 977.552 198.699 978.165 198.624C987.147 197.54 995.677 199.821 1002.75 205.461C1010.66 211.763 1015.38 221.174 1016.43 231.163C1017.5 241.323 1014.6 251.905 1008.07 259.824C1001.42 267.895 993.222 271.56 982.95 272.556C978.002 272.406 972.002 271.039 967.592 268.828C958.85 264.446 952.766 256.388 949.828 247.181C946.78 237.63 947.452 226.795 952.074 217.851C957.398 207.55 965.472 202.321 976.332 198.881Z"/>
	<path d="M1889.26 456.433L1889.78 456.377C1899.15 455.474 1921.17 454.805 1928.65 461.062C1928.8 461.892 1928.89 462.709 1928.87 463.554C1928.71 470.304 1920.72 497.84 1916.2 502.298C1905.1 498.929 1892.38 498.088 1881.07 500.871C1871.22 503.294 1863.16 508.52 1856.55 516.169C1837.76 537.917 1841.12 564.25 1841.18 590.952L1841.41 648.69C1841.45 654.885 1842.86 666.634 1839.65 671.903C1829.57 672.78 1818.89 672.097 1808.74 672.106L1797.46 672.078C1799.65 661.048 1797.9 645.483 1797.89 633.86C1797.86 610.777 1795.5 472.947 1799.45 462.625C1806.32 458.587 1829.31 460.754 1837.94 461.069C1838.24 461.48 1838.5 461.897 1838.72 462.361C1840.38 465.826 1839.5 486.592 1838.15 490.721C1841.76 488.722 1844.21 483.371 1846.97 480.25C1858.14 467.581 1873.44 461.061 1889.26 456.433Z"/>
	<path d="M1128.81 456.432C1135.02 455.59 1147.6 454.614 1153.11 457.478C1153.96 457.92 1154.33 459.105 1154.6 460.005C1156.54 466.563 1156.48 495.283 1153.38 500.978C1141.58 499.774 1130.16 498.491 1118.43 501.199C1108.64 503.458 1099.75 507.991 1092.44 514.917C1071.4 534.855 1075.03 563.067 1075.12 589.435C1075.19 608.961 1074.96 628.506 1075.24 648.028C1075.33 654.621 1077.02 666.421 1073.57 671.913C1064.42 672.428 1039.77 674.043 1031.92 671.062C1032.28 670.317 1032.58 669.552 1032.76 668.743C1034.7 659.845 1033.14 623.683 1033.15 612.681C1033.17 563.997 1034.65 514.819 1033.05 466.212C1032.99 464.188 1032.77 462.829 1031.69 461.08C1044.85 460.729 1058.68 459.829 1071.78 461.228C1072.2 461.782 1072.65 462.428 1072.87 463.1C1074.47 468.233 1074.23 486.301 1071.66 491.238C1075.54 488.643 1078.61 483.564 1081.89 480.147C1098.34 463.031 1105.92 461.204 1128.81 456.432Z"/>
	<path d="M1287.31 171.221C1289.05 171.013 1290.77 170.888 1292.53 170.934C1308.2 171.354 1323.04 178.022 1333.76 189.451C1340.61 196.662 1349.94 210.228 1349.67 220.577C1347.08 224.133 1277.76 251.213 1267.86 255.18C1274.56 260.614 1276.45 267.482 1286.06 269.745C1295.35 271.932 1306.06 270.641 1314.2 265.533C1318.15 263.058 1323.62 257.902 1324.67 253.148C1329.29 254.847 1338.15 259.844 1340.86 263.933C1343.85 264.986 1347.32 266.397 1348.9 269.275C1348.67 270.946 1348.27 272.409 1347.29 273.808C1338.46 286.347 1323.45 295.46 1308.45 298.186C1290.95 301.369 1273.4 298.293 1258.76 288.056C1245.06 278.409 1235.79 263.681 1233.02 247.158C1230.04 229.935 1233.36 211.029 1243.6 196.676C1254.69 181.124 1268.89 174.273 1287.31 171.221Z"/>
	<path fill="#FEFEFE" d="M1286.76 198.884C1295.46 198.18 1303.49 197.663 1310.54 203.85C1312.47 205.551 1314.58 207.539 1314.79 210.129C1305.43 216.429 1291.39 220.309 1280.64 224.101C1280.4 224.379 1280.39 224.393 1280.09 224.681C1277.57 227.084 1267.66 230.468 1264.27 230.32C1263.57 229.93 1262.24 229.464 1261.99 228.712C1260.92 225.504 1262.76 221.726 1264.18 218.876C1269.11 209.004 1276.34 202.403 1286.76 198.884Z"/>
	<path d="M1191.69 109.218C1198.95 108.12 1215.41 107.059 1221.96 110.231C1222.16 110.803 1222.32 111.384 1222.45 111.973C1224.26 119.961 1223.89 288.903 1222.81 291.828C1222.54 292.562 1221.68 293.591 1221.24 294.275C1214.78 296.626 1197.85 294.988 1190.32 294.932C1191.13 293.577 1191.61 292.053 1191.74 290.48C1193.51 268.266 1191.94 244.626 1191.93 222.291C1191.93 184.653 1192.68 146.837 1191.69 109.218Z"/>
</svg>
