<?xml version="1.0" encoding="utf-8" ?>
<svg xmlns="http://www.w3.org/2000/svg" xmlns:xlink="http://www.w3.org/1999/xlink" width="2560" height="1468">
	<path fill="#27BEFE" d="M526.227 375.4C533.259 375.091 540.45 375.143 547.451 375.881C594.971 380.89 629.27 417.091 657.728 452.113C674.185 433.233 686.596 413.234 707.141 398.07C730.147 381.089 757.955 372.36 786.492 376.937C821.266 382.516 851.581 407.815 871.769 435.713C913.788 493.779 932.203 578.036 920.721 648.586C915.914 678.12 903.898 706.391 878.799 724.265C859.202 738.22 833.238 741.371 809.915 737.28C772.635 730.741 746.433 700.225 725.949 670.7C698.38 630.913 676.086 587.756 649.991 546.981C621.636 593.947 598.099 644.886 563.871 688.052C543.987 713.127 520.33 734.491 487.09 738.151C461.961 740.918 435.806 734.71 415.916 718.729C392.034 699.541 380.907 668.361 377.849 638.681C370.484 567.174 390.426 484.365 436.241 428.09C459.443 399.591 488.849 379.176 526.227 375.4ZM683.453 488.584C701.223 514.923 717.657 542.082 734.196 569.205C754.069 601.795 777.416 649.569 807.388 672.553C818.067 678.485 829.291 681.912 841.459 678.482C850.709 675.876 857.651 669.449 862.248 661.154C882.172 625.199 869.458 558.778 858.368 521.268C848.349 487.378 827.812 447.121 795.553 429.72C783.911 423.44 770.532 420.468 757.356 422.279C723.124 430.625 701.27 460.177 683.453 488.584ZM515.368 661.683C539.554 635.447 558.269 604.258 577.266 574.227C592.281 550.671 607.507 527.251 622.943 503.968C603.011 476.991 577.844 440.636 542.168 435.359C536.026 434.45 530.203 434.674 524.081 435.547C499.257 441.688 482.888 459.625 470.034 480.859C443.665 524.416 426.136 593.316 438.819 643.586C441.96 656.036 447.445 668.984 459.075 675.681C468.157 680.91 479.895 681.554 489.868 678.749C500.03 675.89 508.194 669.188 515.368 661.683Z"/>
	<path fill="#0B1C29" d="M1339.47 387.327C1361.79 386.484 1384.3 387.123 1406.64 387.175C1405.94 502.416 1406.2 617.66 1407.41 732.897C1388.49 733.122 1369.57 733.159 1350.65 733.008C1352.33 675.304 1351.19 617.517 1351.48 559.789C1351.59 544.836 1354.42 484.469 1349.81 475.028C1347.2 476.242 1345.81 478.832 1344.27 481.237C1341.09 486.22 1338.71 491.843 1335.72 496.974C1322.96 518.84 1310.84 540.683 1298.77 562.93C1282.68 592.574 1265.54 621.746 1248.9 651.097L1196.71 651.178C1177.26 614.983 1156.81 579.131 1136.67 543.305C1123.12 519.214 1110.12 494.321 1095.16 471.086C1092.79 501.302 1094.55 532.9 1094.59 563.233L1094.67 732.514C1076.28 733.57 1057.38 732.737 1038.93 732.781L1038.76 494.079L1038.26 426.282C1038.16 413.533 1037.2 399.829 1038.71 387.194C1061.4 387.124 1084.09 387.198 1106.78 387.416C1119.43 402.684 1128.13 423.876 1137.85 441.2C1166.98 493.112 1194.35 546.243 1224.62 597.464C1231.77 582.64 1240.13 568.498 1247.92 554.015C1264.02 523.485 1280.52 493.16 1297.39 463.047C1311.53 437.887 1326.5 413.128 1339.47 387.327Z"/>
	<path fill="#0B1C29" d="M2031.42 469.498C2053.84 467.024 2076.51 470.799 2096.92 480.406C2105.97 484.743 2123.01 494.034 2126.58 504.144C2127.21 502.498 2127.73 500.799 2127.96 499.044C2128.74 493.066 2129.74 480.143 2125.85 475.199C2143.71 474.344 2162.52 474.706 2180.38 475.654C2180.75 476.15 2180.93 476.329 2181.15 476.982C2183.32 483.378 2181.71 526.633 2181.73 536.997C2181.85 598.605 2183.3 660.532 2181.5 722.103C2181.39 725.819 2181.58 729.068 2179.72 732.427C2162.48 733.365 2144.96 732.844 2127.68 732.852C2127.94 732.373 2128.38 731.614 2128.56 731.056C2130.41 725.42 2130.71 704.501 2127.99 699.727C2125.23 704.942 2116.68 712.933 2111.42 715.366C2111.3 715.619 2111.22 715.891 2111.07 716.124C2104.16 726.711 2075.26 735.217 2063.51 737.117C2032.97 742.051 2002.8 735.932 1977.74 717.569C1949.41 696.813 1933.68 662.752 1928.42 628.712C1922.21 588.509 1929.72 547.573 1954.15 514.488C1972.95 489.017 2000.41 474.139 2031.42 469.498ZM2060.25 689.45C2081.26 688.132 2100.95 680.371 2115.04 664.268C2130.96 646.093 2127.71 624.961 2127.71 602.546C2127.71 592.866 2128.53 582.996 2127.75 573.344C2126.56 558.702 2119.48 546.055 2108.29 536.628C2091.8 522.728 2067.92 516.276 2046.63 518.363L2045.28 518.499C2024.99 522.232 2008.05 532.343 1996.31 549.565C1981.21 571.73 1978.24 601.982 1983.31 627.844C1987.27 648.101 1998.03 667.393 2015.55 678.886C2028.01 687.057 2045.38 691.681 2060.25 689.45Z"/>
	<path fill="#0B1C29" d="M1570.64 469.496C1595.49 467.719 1621.28 471.238 1642.88 484.351C1670.85 501.325 1688.43 530.535 1696.19 561.727C1699.48 574.969 1705.4 611.664 1698.4 623.375C1682.41 625.581 1656.75 623.666 1639.79 623.684L1509.2 624.071C1512.08 627.169 1513.07 631.811 1514.63 635.717C1521.4 652.612 1529.28 668.844 1544.68 679.548C1570.94 697.812 1616.62 695.908 1643.5 679.332C1647.24 677.03 1661.84 663.88 1664.64 663.566C1664.97 663.529 1665.31 663.52 1665.65 663.497C1666.9 664.057 1667.99 664.695 1669.02 665.617C1673.8 669.87 1692.93 693.957 1693.21 699.388C1693.01 699.791 1692.84 700.211 1692.6 700.595C1691.03 703.161 1687.1 705.95 1684.79 707.851C1664.22 724.829 1635.13 734.442 1609.03 737.818C1572.15 742.588 1533.38 734.819 1503.69 711.599C1477.12 690.815 1461.75 659.623 1457.72 626.465C1452.86 586.433 1461.18 544.924 1486.54 512.808C1507.35 486.45 1537.99 473.304 1570.64 469.496ZM1588.75 583.196C1607.85 583.147 1627.2 583.707 1646.26 582.688C1649.27 576.363 1646.33 566.263 1644.08 559.966C1638.11 543.277 1627.22 529.624 1610.94 522.114C1597.45 515.893 1583.03 515.067 1568.44 516.498C1548.33 523.045 1531.37 533.575 1521.45 552.963C1517.71 560.278 1512.15 573.525 1512.52 581.938C1516.09 584.998 1579.23 583.25 1588.75 583.196Z"/>
	<path fill="#0B1C29" d="M1770.23 399.5C1787.12 398.847 1804.39 399.153 1821.29 399.568C1821.65 400.197 1822.02 400.755 1822.26 401.44C1824.16 406.973 1823.87 469.388 1821.3 474.39C1847.6 475.558 1874.04 473.839 1900.34 475.134C1900.8 475.945 1901.22 476.593 1901.35 477.54C1902.44 485.112 1902.25 514.764 1898.42 520.442C1873.1 521.596 1847.22 520.282 1821.82 520.5C1825.49 526.427 1821.1 633.924 1823.8 653.655C1825.28 664.56 1828.76 675.503 1837.98 682.291C1854.6 694.52 1880.59 690.333 1899.6 687.559C1900.12 688.253 1900.4 688.543 1900.75 689.289C1903.61 695.449 1901.07 704.547 1898.93 710.494L1901.49 712.734C1902.61 717.09 1903.9 721.359 1902.63 725.842C1901.39 730.204 1897.5 733.519 1893.58 735.463C1878.74 742.823 1833.64 737.972 1818.36 732.396C1768.3 714.13 1769.49 661.959 1769.49 617.678L1769.56 554.077C1769.59 544.8 1771.73 530.841 1767.82 522.394C1763.24 518.333 1725.41 520.571 1716.37 520.629C1717.03 519.424 1717.53 518.331 1717.82 516.976C1719.31 510.04 1719.69 480.145 1716.38 474.722C1733.27 474.368 1750.23 474.601 1767.13 474.517C1773.48 466.939 1768.04 413.618 1770.23 399.5Z"/>
	<path fill="#0B1C29" d="M381.599 927.507C407.663 927.187 437.63 924.325 463.149 929.665C474.667 932.075 485.983 937.561 492.474 947.763C497.943 956.36 499.841 968.605 497.506 978.504C494.582 990.897 484.821 997.819 474.632 1004.16C479.236 1006 483.887 1007.98 488.151 1010.52C497.108 1015.86 504.607 1024.04 507.136 1034.35C509.739 1044.96 507.133 1056.27 501.66 1065.51C500.042 1068.04 498.355 1070.3 496.216 1072.41C489.002 1079.52 479.593 1083.85 469.796 1086.08C449.621 1090.68 400.282 1087.88 377.117 1087.76C377.142 1070.89 375.967 931.957 378.194 928.273L381.599 927.507ZM473.616 1059.93C478.368 1055.95 481.922 1051.65 482.536 1045.18C483.12 1039.03 481.091 1034.01 478.645 1028.56C457.178 1013.67 426.842 1018.15 401.84 1018.4C398.577 1026.32 400.901 1055.83 400.757 1066.5C421.962 1066.59 455.324 1070.42 473.616 1059.93ZM400.472 997.559C420.245 997.986 449.357 1002.02 466.657 990.683C471.281 986.712 474.331 982.294 474.791 976.06C475.244 969.939 473.905 963.996 469.663 959.364C461.008 949.915 446.134 948.797 434.178 948.668C423.06 948.548 411.661 948.35 400.567 949.077C400.541 965.232 400.675 981.406 400.472 997.559Z"/>
	<path fill="#0B1C29" d="M1415.98 927.47L1424.58 927.311C1450.72 926.899 1484.17 923.198 1504.34 943.133C1514.44 953.107 1519.04 967.174 1519.14 981.158C1519.24 995.449 1514.67 1008.41 1504.43 1018.56C1487.83 1035 1466.08 1035.06 1444.25 1034.83C1434.55 1034.62 1424.83 1034.73 1415.13 1034.73L1415.29 1087.83C1407.46 1087.87 1399.62 1087.82 1391.78 1087.69C1390.68 1034.52 1391.52 981.215 1390.87 928.01C1399.22 927.623 1407.62 927.639 1415.98 927.47ZM1415.44 1012.06C1431.95 1012.07 1468.87 1015.44 1481.91 1005.25L1482.38 1004.26C1486.75 1001.99 1489.62 997.955 1491.23 993.348C1494.12 985.055 1493.89 973.807 1489.86 965.912C1486.33 959.003 1480.13 954.892 1472.91 952.683C1455.71 947.425 1433.75 949.733 1415.9 950.35C1413.34 965.416 1415.35 995.677 1415.44 1012.06Z"/>
	<path fill="#0B1C29" d="M1022.48 970.455C1031.34 970.232 1040 970.807 1048.26 974.301C1060.1 979.313 1068.34 988.868 1073.11 1000.65C1076.69 1009.48 1082.06 1029.3 1078.24 1038.42C1071.78 1042.34 1008.21 1040.51 994.827 1040.65C997.641 1048.85 1000.25 1056.31 1006.52 1062.6C1017.22 1073.35 1033.19 1070.83 1045.78 1065.23C1049.06 1063.78 1053.97 1060.05 1057.55 1060.23C1058.02 1060.26 1058.5 1060.32 1058.97 1060.36C1064.04 1063.97 1067.75 1068.35 1071.72 1073.1C1062 1081.49 1051.32 1087.35 1038.61 1089.77C1023.6 1092.63 1007.49 1090.38 994.754 1081.62C981.601 1072.59 972.697 1057.57 970.077 1041.92C967.256 1025.08 970.838 1006.24 981.048 992.383C991.495 978.199 1005.64 972.852 1022.48 970.455ZM1029.5 1021.64C1037.81 1021.58 1046.19 1021.74 1054.5 1021.44C1052.14 1011.27 1049.7 1001.07 1039.96 995.394C1033.99 991.915 1026.16 991.281 1019.44 992.208C1008.76 995.912 1000.46 1003.43 995.31 1013.66C994.427 1015.41 994.314 1016.8 994.343 1018.74C995.803 1020.72 996.433 1021.34 998.912 1021.78C1008.28 1023.43 1019.87 1021.56 1029.5 1021.64Z"/>
	<path fill="#0B1C29" d="M2031.26 970.5C2044.42 969.789 2057.48 970.989 2068.55 978.852C2082.07 988.457 2088.18 1004.4 2090.88 1020.21C2092 1026.8 2093.01 1034.2 2088.9 1040C2077.91 1040.24 2012.1 1038.69 2007.85 1040.87L2007.32 1043.18C2009.72 1050.96 2012.14 1057.17 2018.71 1062.34C2027.09 1068.95 2037.41 1070.44 2047.78 1069.2C2053.71 1068.48 2063.46 1065.04 2066.92 1059.97C2067.09 1059.72 2067.2 1059.43 2067.34 1059.17L2071.3 1059.23C2075.01 1061.44 2079.49 1063.61 2081.01 1067.94C2081.86 1070.35 2081.5 1072.96 2080.35 1075.21C2076.89 1081.99 2067.8 1085.38 2060.96 1087.4C2044.6 1092.21 2025.88 1092.53 2010.66 1084C1997.99 1076.9 1989.67 1064.89 1985.89 1051.02C1981.21 1033.93 1982.02 1011.4 1991.22 995.857C2000.3 980.501 2014.74 974.619 2031.26 970.5ZM2003.12 1021.71C2014.99 1021.9 2026.87 1021.96 2038.75 1021.92C2046.52 1022.04 2058.19 1023.65 2065.33 1020.69C2066.94 1018.96 2067.85 1018.04 2067.64 1015.54C2067.11 1009.02 2059.3 1000.93 2054.18 997.4C2047.3 992.652 2040.38 991.504 2032.17 992.5C2020.69 996.865 2015.14 1002.73 2008.88 1013.31C2007.07 1016.38 2005.85 1019.31 2003.12 1021.71Z"/>
	<path fill="#0B1C29" d="M1581.98 970.499C1592.44 970.253 1603.74 971.35 1613.23 976.06C1622.8 980.807 1629.13 988.957 1632.42 999.02C1633.94 1003.66 1634.75 1008.42 1635.14 1013.28C1635.92 1022.96 1637.09 1083.12 1634.64 1087.9L1612.01 1087.91C1612.15 1087.66 1612.31 1087.42 1612.43 1087.15C1614.67 1082.38 1612.9 1076.79 1611.16 1072.17C1610.01 1075.45 1604.86 1079.13 1602.06 1081.16C1591.71 1088.66 1576.81 1091.42 1564.31 1089.23C1550.89 1086.89 1544.56 1081.31 1536.86 1070.54C1538.09 1066.73 1534.99 1058.16 1534.8 1053.57C1534.48 1045.96 1536.93 1039.66 1542.14 1034.14C1556.16 1019.3 1576.81 1022.26 1595.17 1021.41C1600.94 1021.15 1608.08 1020.37 1612.18 1015.9C1613.03 1013.08 1613.28 1012.03 1612.05 1009.15C1608.91 1001.75 1603.73 996.197 1596.11 993.52C1578.12 987.2 1569.14 998.989 1554.3 1006.13C1554.05 1006.25 1553.8 1006.36 1553.55 1006.47C1553.48 1006.25 1553.43 1006.01 1553.33 1005.79C1550.8 1000.17 1541.98 996.147 1536.59 994.063C1540.34 992.244 1542.87 989.322 1545.97 986.647C1557.84 976.411 1566.24 971.895 1581.98 970.499ZM1588.75 1067.5C1597.93 1065.11 1607.8 1058.27 1612.82 1050.12C1613.99 1048.22 1614.42 1046.77 1614.37 1044.56C1613.08 1042.04 1611.95 1040.75 1609.13 1039.86C1600.79 1037.25 1588.09 1039.19 1579.35 1039.5C1572.59 1040.73 1565.95 1041.46 1561.75 1047.63C1559.6 1050.8 1558.84 1054.49 1559.65 1058.24C1560.55 1062.45 1563.3 1065.93 1567 1068.06C1573.02 1071.52 1580.61 1070.55 1586.93 1068.3C1587.96 1067.93 1587.93 1067.92 1588.75 1067.5Z"/>
	<path fill="#0B1C29" d="M612.894 973.787C620.321 973.694 627.799 973.943 635.229 974.027L635.232 1011.75L635.634 1087.44C628.085 1087.64 620.536 1087.49 612.986 1087.39C612.893 1082.78 612.595 1078.17 612.337 1073.57C601.212 1083.5 587.903 1091.38 572.527 1091.28C562.107 1091.22 551.572 1086.92 544.263 1079.45C523.152 1057.91 531.445 1002.45 531.808 973.806L554.382 973.84C554.502 994.637 550.477 1049.81 563.924 1063.48C567.925 1067.55 573.245 1069.33 578.865 1069.43C587.162 1069.57 595.661 1066.93 601.669 1061.07C607.051 1055.82 609.967 1048.72 611.456 1041.46C614.666 1025.82 612.82 991.474 612.894 973.787Z"/>
	<path fill="#0B1C29" d="M1907.32 970.5C1917.24 969.838 1927.63 970.43 1936.64 975.008C1945.99 979.754 1951.48 988.412 1954.62 998.164C1956.44 1003.97 1957.57 1009.98 1957.97 1016.05C1958.74 1026.24 1960.12 1080.9 1956.57 1087.85C1949 1088.14 1941.36 1087.88 1933.78 1087.83C1934.12 1087.22 1934.33 1086.9 1934.55 1086.27C1936.61 1080.17 1934.82 1025.81 1933.82 1017.54C1933.16 1012.07 1932.05 1006.45 1929.64 1001.44C1927.41 996.791 1924.88 994.797 1920.1 993.084C1909.58 989.316 1898.92 994.114 1889.47 998.503C1886.58 1004.21 1879.8 1007.49 1877.61 1014.26C1871.23 1034.04 1883.48 1072.8 1875.05 1087.84C1867.74 1088.65 1859.51 1088.02 1852.11 1088.04C1852.67 1086.82 1853.12 1085.87 1853.3 1084.52C1855.06 1071.82 1853.8 1057.09 1853.93 1044.18L1854.19 1001.18C1854.2 994.003 1854.83 986.081 1853.93 978.964C1853.69 977.045 1853.14 975.589 1852.02 974.032C1860.16 973.904 1868.28 973.686 1876.41 974.233C1878.83 978.959 1876.9 986.345 1875.73 991.311C1878.66 989.915 1880.49 987.524 1882.72 985.227C1890.66 977.025 1896.38 973.675 1907.32 970.5Z"/>
	<path fill="#0B1C29" d="M1135.05 971.311C1138.4 970.754 1141.88 970.661 1145.27 970.591C1166.11 970.158 1179.24 977.07 1193.86 991.176C1188.81 997.03 1183.28 1002.06 1177.51 1007.18C1175.32 1004.15 1173.08 1001.21 1170.26 998.745C1163.24 992.629 1153.32 989.626 1144.11 990.337C1137.92 990.815 1128.76 992.875 1124.77 998.045C1123.46 999.752 1122.83 1001.84 1123.16 1003.98C1125.42 1018.52 1169.26 1021.1 1183.68 1031.19C1190 1035.61 1193.92 1041.98 1195.1 1049.59C1196.51 1058.65 1194.81 1068.77 1189.08 1076.12C1181.6 1085.7 1168.44 1088.76 1157.07 1090.31C1151.9 1090.75 1146.61 1090.79 1141.43 1090.6C1121.72 1089.84 1109.96 1082.47 1096.88 1068.43C1102 1063.79 1107.04 1059.06 1111.99 1054.25C1115.07 1057.47 1118.36 1060.69 1122.1 1063.14C1132.83 1070.14 1147 1072.61 1159.52 1069.72C1163.57 1068.79 1167.63 1067.17 1169.73 1063.33C1171.26 1060.53 1171.69 1057.05 1170.77 1053.98C1166.83 1040.77 1126.84 1037.48 1113.39 1029.71C1107.22 1026.15 1102.05 1021.15 1100.39 1013.97C1098.43 1005.49 1100.72 994.614 1105.51 987.403C1112.2 977.321 1123.74 973.534 1135.05 971.311Z"/>
	<path fill="#0B1C29" d="M1252.79 971.301C1257 970.469 1261.92 970.547 1266.2 970.722C1283.79 971.443 1297.03 979.115 1308.71 991.855C1305.13 994.569 1302.07 997.801 1298.61 1000.64C1297.52 1001.53 1294.72 1003.9 1293.4 1003.8C1289.83 1003.52 1275.48 991.786 1262.37 990.399C1255.7 989.694 1248.87 990.349 1243.56 994.86C1241.12 996.931 1237.59 1000.71 1237.62 1004.12C1237.73 1016.53 1275.93 1021.06 1284.83 1024.16C1290.81 1026.25 1296.57 1029.27 1301.27 1033.57C1306.92 1038.72 1310.72 1046.7 1310.94 1054.4C1311.19 1063.15 1307.31 1071 1301.34 1077.2C1291.65 1087.25 1279.55 1090.76 1265.97 1091.08C1241.78 1091.31 1227.69 1084.27 1210.25 1068.26C1216.4 1064.09 1220.81 1059.73 1225.35 1053.82C1236.83 1063.42 1246.82 1070.75 1262.47 1070.66C1270.88 1070.61 1279.25 1068.89 1285.21 1062.46C1287.65 1059.83 1288.05 1058.41 1288.02 1055.02C1281.04 1040.54 1241.12 1038.32 1226.68 1028.52C1220.61 1024.4 1216 1018.44 1214.91 1011.02C1213.69 1002.71 1216.97 993.22 1221.98 986.629C1229.4 976.877 1241.09 972.893 1252.79 971.301Z"/>
	<path fill="#0B1C29" d="M707.46 970.47C711.647 970.511 715.836 970.591 719.991 971.142C736.165 973.288 747.966 979.993 757.822 992.966C752.459 996.882 747.251 1000.73 742.426 1005.32C736.091 998.215 728.69 993.5 719.264 991.606C709.505 989.645 699.323 990.326 690.904 995.99C687.465 998.304 685.694 1000.13 684.911 1004.18C690.782 1018.55 735.852 1020.08 751.207 1034.97C756.356 1039.97 759.838 1046.37 759.925 1053.69C760.02 1061.76 756.836 1070.77 751.17 1076.57C738.923 1089.11 724.179 1090.81 707.526 1090.92C687.634 1089.67 674.311 1082.47 660.157 1068.73C665.778 1064.22 670.836 1059.62 675.231 1053.87C686.072 1064.79 695.765 1070.48 711.574 1070.52C719.896 1070.55 730.405 1068.29 736.111 1061.63C737.798 1059.66 737.982 1058.52 737.916 1056.03C729.956 1039.8 689.322 1039.26 673.733 1026.82C667.922 1022.18 662.939 1015.65 662.314 1008.01C661.644 999.8 665.88 990.924 671.055 984.743C680.161 973.867 694.09 971.519 707.46 970.47Z"/>
	<path fill="#0B1C29" d="M893.009 971.407C895.825 971.026 898.68 970.632 901.525 970.597C912.304 970.465 922.975 973.42 930.828 981.091C936.869 986.991 940.618 994.853 942.643 1002.97C947.673 1023.12 945.136 1065.04 945.141 1087.37C937.695 1087.94 930.094 1087.6 922.626 1087.56C922.142 1068.99 924.426 1026 920.519 1010.68C918.77 1003.82 915.032 997.377 908.607 993.946C900.892 989.825 892.613 991.449 884.777 994.025C881.009 996.359 877.339 998.72 874.196 1001.88C869.868 1006.31 866.796 1011.81 865.292 1017.82C861.64 1032.55 863.854 1070.23 863.907 1087.27C856.698 1087.41 849.462 1087.28 842.25 1087.27C842.138 1049.51 840.439 1011.72 840.912 973.99C849.116 973.851 857.265 974.007 865.464 974.286L865.027 988.006C873.893 981.108 881.767 973.837 893.009 971.407Z"/>
	<path fill="#0B1C29" d="M1765.06 939.086C1770.43 939.024 1783.96 937.194 1787.67 940.699C1792.51 945.275 1790.64 963.592 1790.32 969.891C1790.23 971.536 1789.96 972.49 1789.15 973.925C1801.22 973.927 1814.06 973.026 1826.04 974.267C1828.06 978.214 1828.36 987.313 1827.18 991.705C1826.94 992.626 1826.78 992.779 1826.34 993.485C1813.86 994.048 1801.39 993.623 1788.91 993.949C1800.02 1010.06 1774.73 1061.95 1804.31 1067.27C1812.06 1068.66 1823.19 1065.16 1829.35 1070.42C1831.37 1073.74 1831.4 1077.55 1830.62 1081.3C1830.05 1084.06 1828.41 1086.19 1826.04 1087.68C1817.96 1092.76 1800.77 1090.42 1792.09 1087.98C1784.27 1085.79 1777.61 1082.28 1773.53 1074.88C1771.15 1070.56 1767.08 1057.7 1764.62 1055.19C1766.64 1049.17 1766.57 1001.63 1764.38 995.228L1760.42 994.038C1754.31 993.341 1748.25 993.76 1742.14 993.419C1744.49 988.254 1743.82 979.208 1742.73 973.602C1749.66 973.419 1756.6 973.361 1763.53 973.426C1767.68 967.384 1767.5 949.632 1766.24 942.04C1766.05 940.873 1765.62 940.112 1765.06 939.086Z"/>
	<path fill="#0B1C29" d="M1712.82 971.499C1717.06 970.9 1723.27 969.467 1727.26 971.344C1729.65 972.471 1731.57 974.627 1732.33 977.165C1733.52 981.167 1732.27 990.431 1730.38 994.159C1724.49 994.187 1717.47 993.612 1711.77 995.029C1674.46 1004.31 1698.09 1069.66 1688.35 1087.37C1681.87 1088.25 1674.8 1087.67 1668.25 1087.65C1661.45 1082.57 1672.13 987.242 1665.24 973.515C1671.32 973.709 1680.49 971.632 1686.02 973.73C1687.59 974.329 1688.89 975.061 1689.61 976.599C1691.14 979.844 1689.08 984.05 1687.89 987.133C1696.88 982.649 1703.08 975.359 1712.82 971.499Z"/>
	<path fill="#0B1C29" d="M2162.7 971.5C2167.22 971.097 2173.2 969.769 2177.35 972.014C2179.85 973.365 2182.17 975.818 2182.76 978.674C2183.59 982.694 2182.28 990.528 2180.14 994.007C2174.26 994.874 2168.1 993.571 2162.27 995.222C2139.56 1001.65 2139.66 1022.46 2139.96 1042.03C2140.11 1052.15 2140.46 1062.31 2140.31 1072.44C2140.25 1077.05 2140.62 1083.07 2138.31 1087.12C2132.89 1087.62 2127.21 1087.33 2121.75 1087.37C2119.99 1086.9 2118.87 1086.66 2117.87 1084.93C2113.31 1077.13 2121.8 984.071 2115.36 973.413C2122.58 973.28 2130.82 972.429 2137.91 973.813C2143.94 974.99 2140.26 980.106 2142.81 984.227C2147.97 982.7 2156.27 974.486 2162.7 971.5Z"/>
	<path fill="#0B1C29" d="M784.429 973.832L806.738 974.105C806.747 1011.97 807.843 1049.97 806.977 1087.81L784.497 1087.82L784.429 973.832Z"/>
	<path fill="#0B1C29" d="M790.176 923.999C798.11 920.974 806.995 924.942 810.037 932.869C813.079 940.795 809.131 949.689 801.211 952.748C793.266 955.818 784.339 951.854 781.287 943.903C778.236 935.952 782.219 927.033 790.176 923.999Z"/>
	<path fill="#FEFEFE" fill-opacity="0.011764706" d="M1760.42 994.038L1764.38 995.228C1766.57 1001.63 1766.64 1049.17 1764.62 1055.19L1762.86 1054.55C1757.33 1041.34 1765.68 1009.4 1760.42 994.038Z"/>
</svg>
